<svg version="1.2" xmlns="http://www.w3.org/2000/svg" viewBox="0 0 850 850" width="850" height="850">
	<style>
		.s0 { fill: #f07528 } 
	</style>
	<path id="Layer 1" fill-rule="evenodd" class="s0" d="m530.07 280.31l-18.37-52.84-55.92-1.14 44.57-33.79-16.19-53.54 45.91 31.95 45.91-31.95-16.2 53.54 44.58 33.79-55.93 1.14z"/>
	<path id="Layer 1 copy 2" fill-rule="evenodd" class="s0" d="m732.07 401.31l-18.37-52.84-55.92-1.14 44.57-33.79-16.19-53.54 45.91 31.95 45.91-31.95-16.2 53.54 44.58 33.79-55.93 1.14z"/>
	<path id="Layer 1 copy 3" fill-rule="evenodd" class="s0" d="m150.07 174.31l-18.37-52.84-55.92-1.14 44.57-33.79-16.19-53.54 45.91 31.95 45.91-31.95-16.2 53.54 44.58 33.79-55.93 1.14z"/>
	<path id="Layer 1 copy 4" fill-rule="evenodd" class="s0" d="m341.07 261.31l-10.83-31.15-32.97-0.67 26.28-19.93-9.55-31.56 27.07 18.84 27.07-18.84-9.55 31.56 26.28 19.93-32.97 0.67z"/>
	<path id="Layer 1 copy 5" fill-rule="evenodd" class="s0" d="m235.07 295.31l-10.83-31.15-32.97-0.67 26.28-19.93-9.55-31.56 27.07 18.84 27.07-18.84-9.55 31.56 26.28 19.93-32.97 0.67z"/>
	<path id="Layer 1 copy" fill-rule="evenodd" class="s0" d="m293.07 844.31l-32.4-93.22-98.67-2.01 78.64-59.62-28.58-94.46 81.01 56.37 81-56.37-28.57 94.46 78.64 59.62-98.67 2.01z"/>
</svg>