<svg version="1.2" xmlns="http://www.w3.org/2000/svg" viewBox="0 0 850 850" width="850" height="850">
	<style>
		.s0 { fill: #f07528 } 
	</style>
	<g id="Folder 1 copy 2">
		<path id="Layer 1 copy" fill-rule="evenodd" class="s0" d="m425.15 816.05l-101.64-292.41-309.51-6.3 246.69-187.03-89.64-296.31 254.1 176.82 254.1-176.82-49.93 165.06q-2.68-0.06-5.37-0.06c-125.27 0-226.05 101.04-226.05 226.05 0 77.57 38.91 145.91 98.3 186.61zm411.15-298.72l-5.93 0.12q0.77-1.73 1.51-3.47z"/>
		<path id="Shape 1" fill-rule="evenodd" class="s0" d="m625 604c-98.43 0-178-79.57-178-178 0-98.43 79.57-178 178-178 98.43 0 178 79.57 178 178 0 98.43-79.57 178-178 178z"/>
	</g>
</svg>
